<svg width="55" height="56" viewBox="0 0 55 56" fill="none" xmlns="http://www.w3.org/2000/svg">
<path opacity="0.4" d="M39.4188 31.5194V38.7074C39.4188 48.2914 35.6118 52.1249 26.0944 52.1249H17.0529C7.53542 52.1249 3.72845 48.2914 3.72845 38.7074V29.6026C3.72845 20.0187 7.53542 16.1851 17.0529 16.1851H24.1909" stroke="white" stroke-width="6.9155" stroke-linecap="round" stroke-linejoin="round"/>
<path d="M39.4178 31.5194H31.8039C26.0934 31.5194 24.19 29.6026 24.19 23.8523V16.1851L39.4178 31.5194Z" stroke="white" stroke-width="6.9155" stroke-linecap="round" stroke-linejoin="round"/>
<path opacity="0.4" d="M15.6252 11.3931C15.6252 7.41577 18.8136 4.20514 22.7633 4.20514H37.0395" stroke="white" stroke-width="6.9155" stroke-linecap="round" stroke-linejoin="round"/>
<path opacity="0.4" d="M51.3144 18.5811V33.4123C51.3144 37.126 48.3164 40.145 44.6284 40.145" stroke="white" stroke-width="6.9155" stroke-linecap="round" stroke-linejoin="round"/>
<path d="M51.3156 18.5811H44.1775C38.8239 18.5811 37.0394 16.7841 37.0394 11.3931V4.20514L51.3156 18.5811Z" stroke="white" stroke-width="6.9155" stroke-linecap="round" stroke-linejoin="round"/>
</svg>
